# AST/ASF file generated using VICON BodyLanguage
# -----------------------------------------------
:version 1.10
:name VICON
:units
  mass 1.0
  length 0.45
  angle deg
:documentation
   .ast/.asf automatically generated from VICON data using
   VICON BodyBuilder and BodyLanguage model FoxedUp or BRILLIANT.MOD
:root
   order TX TY TZ RX RY RZ
   axis XYZ
   position 0 0 0  
   orientation 0 0 0 
:bonedata
  begin
     id 1 
     name lhipjoint
     direction 0.596438 -0.722117 0.35044 
     length 2.43043 
     axis 0 0 0  XYZ
  end
  begin
     id 2 
     name lfemur
     direction 0.34202 -0.939693 0  
     length 7.0339  
     axis 0 0 20  XYZ
    dof rx ry rz
    limits (-160.0 20.0)
           (-70.0 70.0)
           (-60.0 70.0)
  end
  begin
     id 3 
     name ltibia
     direction 0.34202 -0.939693 0   
     length 7.56602   
     axis 0 0 20   XYZ
    dof rx
    limits (-10.0 170.0)
  end
  begin
     id 4 
     name lfoot
     direction 0.0985677 -0.270812 0.957572   
     length 1.85172   
     axis -90 7.62852e-016 20   XYZ
    dof rx rz
    limits (-45.0 90.0)
           (-70.0 20.0)
  end
  begin
     id 5 
     name ltoes
     direction 1.53534e-011 -4.21843e-011 1   
     length 0.929904   
     axis -90 7.62852e-016 20   XYZ
    dof rx
    limits (-90.0 20.0)
  end
  begin
     id 6 
     name rhipjoint
     direction -0.585088 -0.729594 0.354068   
     length 2.40552  
     axis 0 0 0  XYZ 
  end
  begin
     id 7 
     name rfemur
     direction -0.34202 -0.939693 0   
     length 7.12573   
     axis 0 0 -20   XYZ
    dof rx ry rz
    limits (-160.0 20.0)
           (-70.0 70.0)
           (-70.0 60.0)
  end
  begin
     id 8 
     name rtibia
     direction -0.34202 -0.939693 0   
     length 7.35777   
     axis 0 0 -20   XYZ
    dof rx
    limits (-10.0 170.0)
 end
 begin
     id 9 
     name rfoot
     direction -0.120907 -0.33219 0.935431   
     length 2.0994  
     axis -90 -7.62852e-016 -20   XYZ
    dof rx rz
    limits (-45.0 90.0)
           (-20.0 70.0)
  end
  begin
     id 10 
     name rtoes
     direction -1.53577e-011 -4.21787e-011 1   
     length 1.04244   
     axis -90 -7.62852e-016 -20   XYZ
    dof rx
    limits (-90.0 20.0)
  end
  begin
     id 11 
     name lowerback
     direction 0.00268363 0.993603 -0.112896   
     length 2.15839   
     axis 0 0 0   XYZ
    dof rx ry rz
    limits (-20.0 45.0)
           (-30.0 30.0)
           (-30.0 30.0)
  end
  begin
     id 12 
     name upperback
     direction 0.0272563 0.999411 -0.0208618   
     length 2.16443   
     axis 0 0 0   XYZ
    dof rx ry rz
    limits (-20.0 45.0)
           (-30.0 30.0)
           (-30.0 30.0)
  end
  begin
     id 13 
     name thorax
     direction 0.0254655 0.999174 0.0316806   
     length 2.19003   
     axis 0 0 0   XYZ
    dof rx ry rz
    limits (-20.0 45.0)
           (-30.0 30.0)
           (-30.0 30.0)
  end
  begin
     id 14 
     name lowerneck
     direction -0.0102178 0.988048 0.15381   
     length 1.61507   
     axis 0 0 0   XYZ
    dof rx ry rz
    limits (-20.0 45.0)
           (-30.0 30.0)
           (-30.0 30.0)
  end
  begin
     id 15 
     name upperneck
     direction -0.0061965 0.994088 -0.108398   
     length 1.64042   
     axis 0 0 0   XYZ
    dof rx ry rz
    limits (-20.0 45.0)
           (-30.0 30.0)
           (-30.0 30.0)
  end
  begin
     id 16
     name head
     direction -0.00151929 0.998591 -0.0530385  
     length 1.64343  
     axis 0 0 0   XYZ
    dof rx ry rz
    limits (-20.0 45.0)
           (-30.0 30.0)
           (-30.0 30.0)
  end
  begin
     id 17 
     name lclavicle
     direction 0.948974 0.284245 -0.136574  
     length 3.3483  
     axis 0 0 0   XYZ
    dof ry rz
    limits (-20.0 10.0)
           (0.0 20.0)
  end
  begin
     id 18 
     name lhumerus
     direction 1 -4.48961e-011 1.68576e-027   
     length 4.93485   
     axis -180 -30 -90   XYZ
    dof rx ry rz
    limits (-60.0 90.0)
           (-90.0 90.0)
           (-90.0 90.0)
  end
  begin
     id 19
     name lradius
     direction 1 -4.48965e-011 -2.46405e-027   
     length 3.41719   
     axis -180 -30 -90   XYZ
    dof rx
    limits (-10.0 170.0)
  end
  begin
     id 20
     name lwrist
     direction 1 -4.48968e-011 -8.00486e-028   
     length 1.7086   
     axis 3.27501e-015 90 90   XYZ
    dof ry
    limits (-180.0 0.0)
 end
  begin
     id 21 
     name lhand
     direction 1 -4.48977e-011 -1.60161e-027   
     length 0.6241   
     axis 1.02148e-015 90 90   XYZ
    dof rx rz
    limits (-90.0 90.0)
           (-45.0 45.0)
  end
  begin
     id 22 
     name lfingers
     direction 1 -4.49049e-011 -3.21275e-027   
     length 0.503166   
     axis 2.04295e-015 90 90   XYZ
    dof rx
    limits (0.0 90.0)
  end
  begin
     id 23
     name lthumb
     direction 0.707107 -6.34975e-011 0.707107   
     length 0.722448   
     axis -90 45 -1.62303e-014   XYZ
    dof rx rz
    limits (-45.0 45.0)
           (-45.0 45.0)
  end
  begin
     id 24 
     name rclavicle
     direction -0.904485 0.355099 -0.236246   
     length 3.18329  
     axis 0 0 0   XYZ 
    dof ry rz
    limits (-10.0 20.0)
           (-20.0 0.0)
  end
  begin
     id 25 
     name rhumerus
     direction -1 -4.48953e-011 1.32816e-027  
     length 5.22034   
     axis -180 30 90   XYZ
    dof rx ry rz
    limits (-90.0 60.0)
           (-90.0 90.0)
           (-90.0 90.0)
  end
  begin
     id 26 
     name rradius
     direction -1 -4.48965e-011 -3.93727e-027   
     length 3.41809   
     axis -180 30 90   XYZ
    dof rx
    limits (-10.0 170.0)
  end
  begin
     id 27 
     name rwrist
     direction -1 -4.48962e-011 -8.003e-028   
     length 1.70904   
     axis 3.27501e-015 -90 -90   XYZ
    dof ry
    limits (-180.0 0.0)
  end
  begin
     id 28
     name rhand
     direction -1 -4.49008e-011 -1.60365e-027   
     length 0.77534   
     axis 1.02148e-015 -90 -90   XYZ
    dof rx rz
    limits (-90.0 90.0)
           (-45.0 45.0)
  end
  begin
     id 29
     name rfingers
     direction -1 -4.49001e-011 -3.2064e-027   
     length 0.625099   
     axis 2.04295e-015 -90 -90   XYZ
    dof rx
    limits (0.0 90.0)
  end
  begin
     id 30
     name rthumb
     direction -0.707107 -6.34989e-011 0.707107   
     length 0.897521   
     axis -90 -45 1.62303e-014   XYZ
    dof rx rz
    limits (-45.0 45.0)
           (-45.0 45.0)
  end
:hierarchy
  begin
    root lhipjoint rhipjoint lowerback
    lhipjoint lfemur
    lfemur ltibia
    ltibia lfoot
    lfoot ltoes
    rhipjoint rfemur
    rfemur rtibia
    rtibia rfoot
    rfoot rtoes
    lowerback upperback
    upperback thorax
    thorax lowerneck lclavicle rclavicle
    lowerneck upperneck
    upperneck head
    lclavicle lhumerus
    lhumerus lradius
    lradius lwrist
    lwrist lhand lthumb
    lhand lfingers
    rclavicle rhumerus
    rhumerus rradius
    rradius rwrist
    rwrist rhand rthumb
    rhand rfingers
  end

#!OML:ASF \\sashay\E\Suitcase\Project 1\Capture day 1\Session 1\Male1.ASF
:FULLY-SPECIFIED
:DEGREES
604
root 0.866251 17.4561 7.54553 5.42342 5.82347 -3.74943
lowerback 4.33162 -1.77763 1.73794
upperback -0.59554 -2.15065 4.20388
thorax -2.94685 -1.06574 3.51238
lowerneck -23.2904 2.63774 13.5568
upperneck 25.1693 5.5322 -22.7207
head 13.5695 0.875138 -10.8014
rclavicle 1.71949e-014 -2.38542e-015
rhumerus -60.6585 -31.5817 -40.1972
rradius 13.2526
rwrist 14.1397
rhand -10.3688 12.5173
rfingers 7.12502
rthumb 15.6285 -16.8714
lclavicle 1.71949e-014 -2.38542e-015
lhumerus -38.8555 6.9834 81.0251
lradius 31.2003
lwrist -9.0929
lhand -1.95587 40.1447
lfingers 7.12502
lthumb 23.7157 68.7015
rfemur -11.4142 4.22394 28.5817
rtibia 18.3742
rfoot -10.5698 -7.2614
rtoes 21.9221
lfemur -15.6843 -2.65975 -12.3713
ltibia 60.9202
lfoot -4.70383 -6.68136
ltoes -1.31745
605
root 0.864163 17.4461 7.65398 5.37342 5.51939 -3.66153
lowerback 3.96294 -1.72636 1.55917
upperback -0.183465 -2.1247 4.25489
thorax -2.30683 -1.05462 3.63795
lowerneck -23.9881 2.61657 12.9002
upperneck 25.1709 5.61746 -22.4687
head 13.7153 0.840346 -10.5628
rclavicle -8.84592e-015 1.82882e-014
rhumerus -59.8235 -32.0618 -40.4477
rradius 13.269
rwrist 14.41
rhand -10.1442 11.7181
rfingers 7.12502
rthumb 15.8448 -17.6536
lclavicle -8.84592e-015 1.82882e-014
lhumerus -38.1377 7.46311 81.1001
lradius 31.4712
lwrist -8.74483
lhand -2.74517 40.1893
lfingers 7.12502
lthumb 22.9585 68.8422
rfemur -11.0634 4.42126 28.5851
rtibia 18.6225
rfoot -10.8003 -7.30617
rtoes 21.9777
lfemur -16.4792 -2.4256 -12.5381
ltibia 61.1262
lfoot -6.00567 -5.68257
ltoes -3.09226
606
root 0.871033 17.4289 7.76568 5.16407 5.33431 -3.73845
lowerback 4.2033 -1.5385 1.83514
upperback -0.219309 -1.85061 4.1388
thorax -2.50533 -0.920559 3.35547
lowerneck -24.2565 2.28223 12.2793
upperneck 25.5724 5.27738 -22.0367
head 13.8156 0.658993 -10.3493
rclavicle 1.18277e-014 3.18055e-015
rhumerus -60.182 -32.2799 -40.1018
rradius 13.1177
rwrist 14.4548
rhand -10.4928 12.318
rfingers 7.12502
rthumb 15.509 -17.08
lclavicle 1.18277e-014 3.18055e-015
lhumerus -38.2955 7.24155 81.0734
lradius 31.5347
lwrist -8.71811
lhand -3.25003 40.3123
lfingers 7.12502
lthumb 22.474 69.0246
rfemur -10.5244 4.55293 28.7369
rtibia 18.9475
rfoot -11.4369 -7.3641
rtoes 20.7115
lfemur -17.0891 -2.41373 -12.569
ltibia 61.2593
lfoot -7.63091 -4.8033
ltoes -3.5348
607
root 0.867883 17.4063 7.86295 5.14403 5.03419 -4.04507
lowerback 4.3233 -1.48081 2.16856
upperback -0.2822 -1.7483 4.11965
thorax -2.65293 -0.873474 3.14743
lowerneck -24.3735 2.09485 11.7357
upperneck 25.767 5.11154 -21.6232
head 13.8464 0.568236 -10.1002
rclavicle 9.93923e-016 3.33958e-014
rhumerus -60.9536 -32.9515 -39.1201
rradius 13.4618
rwrist 15.6574
rhand -10.0823 11.9865
rfingers 7.12502
rthumb 15.9044 -17.3804
lclavicle 9.93923e-016 3.33958e-014
lhumerus -38.4306 6.96527 80.8753
lradius 31.8169
lwrist -8.48167
lhand -4.08293 39.4648
lfingers 7.12502
lthumb 21.6743 68.2715
rfemur -10.2765 4.61748 29.1906
rtibia 19.1981
rfoot -11.809 -7.24312
rtoes 20.9796
lfemur -18.0432 -2.11336 -12.2056
ltibia 61.3629
lfoot -8.71327 -4.28755
ltoes -2.71234
608
root 0.873174 17.3998 7.9657 5.30742 4.78342 -3.87334
lowerback 4.11682 -1.38838 1.98095
upperback -0.311174 -1.64182 4.1818
thorax -2.56369 -0.817644 3.30469
lowerneck -24.5089 1.79605 10.7715
upperneck 25.8914 4.95771 -21.252
head 13.8522 0.432155 -9.77995
rclavicle 3.8266e-014 2.38542e-015
rhumerus -59.5783 -31.5893 -41.0779
rradius 13.3267
rwrist 13.315
rhand -9.98356 11.3734
rfingers 7.12502
rthumb 15.9995 -17.9859
lclavicle 3.8266e-014 2.38542e-015
lhumerus -38.6472 7.6558 80.8866
lradius 32.416
lwrist -8.88167
lhand -4.73167 40.1226
lfingers 7.12502
lthumb 21.0512 69
rfemur -10.1438 4.87712 29.0142
rtibia 19.4779
rfoot -12.2749 -7.29466
rtoes 20.6791
lfemur -19.0431 -2.09163 -12.5388
ltibia 61.2491
lfoot -9.85112 -3.51642
ltoes -4.60294
609
root 0.872394 17.3758 8.05876 5.00738 4.4625 -4.04777
lowerback 4.76872 -1.2904 2.24398
upperback -0.454641 -1.46103 4.08445
thorax -3.09542 -0.730795 3.06711
lowerneck -24.444 1.6144 10.5558
upperneck 26.1783 4.75056 -21.0174
head 13.8939 0.345448 -9.69417
rclavicle -4.07509e-015 5.96354e-014
rhumerus -58.8653 -30.4791 -42.6603
rradius 13.0701
rwrist 11.4969
rhand -10.6515 11.9259
rfingers 7.12502
rthumb 15.3562 -17.4839
lclavicle -4.07509e-015 5.96354e-014
lhumerus -38.8577 7.42055 80.6889
lradius 32.2689
lwrist -9.02878
lhand -3.93901 40.6407
lfingers 7.12502
lthumb 21.8125 69.4315
rfemur -9.57801 5.333 29.3315
rtibia 19.7315
rfoot -12.7558 -7.64329
rtoes 21.0264
lfemur -19.6324 -1.89261 -12.3768
ltibia 61.1195
lfoot -10.8381 -3.09521
ltoes -3.2847
